<svg width="74" height="74" viewBox="0 0 74 74" fill="none" xmlns="http://www.w3.org/2000/svg">
<path d="M15.8602 43.1641C13.5467 39.3753 12.3269 35.0202 12.336 30.581C12.336 17.0945 23.3805 6.16406 37.0027 6.16406C50.6248 6.16406 61.6693 17.0945 61.6693 30.581C61.6784 35.0202 60.4586 39.3753 58.1451 43.1641M46.2527 58.5807L45.8518 60.5756C45.4202 62.7556 45.2012 63.844 44.711 64.7073C43.9556 66.0379 42.7324 67.0402 41.2792 67.5193C40.3388 67.8307 39.2227 67.8307 37.0027 67.8307C34.7827 67.8307 33.6665 67.8307 32.7261 67.5224C31.2724 67.0425 30.0492 66.0391 29.2943 64.7073C28.8041 63.844 28.5852 62.7556 28.1535 60.5756L27.7527 58.5807M22.7669 52.7162C22.4832 51.8652 22.3414 51.4366 22.3568 51.0913C22.3743 50.7342 22.4948 50.3899 22.7038 50.0999C22.9128 49.8099 23.2014 49.5866 23.5347 49.4571C23.8553 49.3307 24.3055 49.3307 25.1997 49.3307H48.8057C49.7029 49.3307 50.15 49.3307 50.4707 49.4541C50.8043 49.5837 51.0932 49.8075 51.3023 50.0981C51.5114 50.3887 51.6316 50.7337 51.6485 51.0913C51.6639 51.4366 51.5221 51.8621 51.2384 52.7162C50.7142 54.2918 50.4522 55.0811 50.0482 55.7194C49.2034 57.0533 47.8791 58.0123 46.3482 58.3988C45.6144 58.5807 44.7881 58.5807 43.1323 58.5807H30.873C29.2172 58.5807 28.3878 58.5807 27.6571 58.3957C26.1267 58.01 24.8025 57.0521 23.9571 55.7194C23.5532 55.0811 23.2911 54.2918 22.7669 52.7162Z" stroke="white" stroke-width="3.5" stroke-linecap="round" stroke-linejoin="round"/>
<path d="M25.4375 30.0625L32.375 37V49.3333M48.5625 30.0625L41.625 37V49.3333M25.4375 32.375C26.0508 32.375 26.639 32.1314 27.0727 31.6977C27.5064 31.264 27.75 30.6758 27.75 30.0625C27.75 29.4492 27.5064 28.861 27.0727 28.4273C26.639 27.9936 26.0508 27.75 25.4375 27.75C24.8242 27.75 24.236 27.9936 23.8023 28.4273C23.3686 28.861 23.125 29.4492 23.125 30.0625C23.125 30.6758 23.3686 31.264 23.8023 31.6977C24.236 32.1314 24.8242 32.375 25.4375 32.375ZM48.5625 32.375C47.9492 32.375 47.361 32.1314 46.9273 31.6977C46.4936 31.264 46.25 30.6758 46.25 30.0625C46.25 29.4492 46.4936 28.861 46.9273 28.4273C47.361 27.9936 47.9492 27.75 48.5625 27.75C49.1758 27.75 49.764 27.9936 50.1977 28.4273C50.6314 28.861 50.875 29.4492 50.875 30.0625C50.875 30.6758 50.6314 31.264 50.1977 31.6977C49.764 32.1314 49.1758 32.375 48.5625 32.375Z" stroke="white" stroke-width="3.5" stroke-linecap="round" stroke-linejoin="round"/>
</svg>
