<svg width="110" height="110" viewBox="0 0 110 110" fill="none" xmlns="http://www.w3.org/2000/svg">
<path d="M45 53.2442L52.5086 60.9844L69 43.9844" stroke="white" stroke-width="6.5" stroke-linecap="round" stroke-linejoin="round"/>
<path d="M58.5 84.9787L55 86.9844L51.5 84.9787C44.0482 80.6532 37.8606 74.4313 33.5598 66.9385C29.259 59.4458 26.9965 50.9466 27 42.2957C27.0013 41.0616 27.3253 39.8495 27.9396 38.781C28.5539 37.7126 29.4369 36.8253 30.5 36.2082L51.78 23.8573C52.7578 23.2856 53.8688 22.9844 55 22.9844C56.1312 22.9844 57.2422 23.2856 58.22 23.8573L79.5 36.2082C80.5631 36.8253 81.4461 37.7126 82.0604 38.781C82.6747 39.8495 82.9987 41.0616 83 42.2957C83.0035 50.9466 80.741 59.4458 76.4402 66.9385C72.1394 74.4313 65.9518 80.6532 58.5 84.9787Z" stroke="white" stroke-width="6.5" stroke-linecap="round" stroke-linejoin="round"/>
</svg>
