<svg width="81" height="75" viewBox="0 0 81 75" fill="none" xmlns="http://www.w3.org/2000/svg">
<path d="M63.2812 75C73.067 75 81 67.6547 81 58.5938C81 49.5328 73.067 42.1875 63.2812 42.1875C53.4955 42.1875 45.5625 49.5328 45.5625 58.5938C45.5625 67.6547 53.4955 75 63.2812 75ZM71.7799 53.9402L65.0201 64.372C63.7493 66.3332 60.8262 66.6664 59.0796 65.0491L55.1633 61.4229C54.1747 60.5076 54.1747 59.0236 55.1633 58.1083C56.1518 57.1931 57.7545 57.1931 58.743 58.1083L61.5131 60.6732L67.4388 51.5285C68.1581 50.4186 69.7129 50.0587 70.9117 50.7246C72.1104 51.3906 72.4992 52.8303 71.7799 53.9402Z" fill="#D9D9D9"/>
<path d="M55.6875 23.4375C55.6875 31.204 48.8878 37.5 40.5 37.5C32.1122 37.5 25.3125 31.204 25.3125 23.4375C25.3125 15.671 32.1122 9.375 40.5 9.375C48.8878 9.375 55.6875 15.671 55.6875 23.4375Z" fill="#D9D9D9"/>
<path d="M10.125 60.9375C10.125 65.625 15.1875 65.625 15.1875 65.625H41.7963C40.9568 63.4258 40.5 61.0592 40.5 58.5938C40.5 52.2485 43.5259 46.5576 48.3144 42.6906C45.9527 42.3664 43.3552 42.1875 40.5 42.1875C15.1875 42.1875 10.125 56.25 10.125 60.9375Z" fill="#D9D9D9"/>
</svg>
