<svg width="98" height="91" viewBox="0 0 98 91" fill="none" xmlns="http://www.w3.org/2000/svg">
<path d="M67.1923 31.7309C68.0551 30.9681 69.2033 30.5464 70.3945 30.5548C71.5858 30.5632 72.727 31.0009 73.5773 31.7757C74.4275 32.5505 74.9204 33.6017 74.9519 34.7076C74.9834 35.8134 74.551 36.8873 73.746 37.7028L49.3073 66.0834C48.887 66.5037 48.3799 66.841 47.816 67.0751C47.2522 67.3092 46.6433 67.4354 46.0258 67.446C45.4083 67.4566 44.7948 67.3515 44.222 67.1369C43.6493 66.9223 43.129 66.6027 42.6923 66.1971L26.4855 51.148C26.0342 50.7575 25.6722 50.2866 25.4211 49.7633C25.17 49.2401 25.035 48.6752 25.0242 48.1025C25.0133 47.5297 25.1267 46.9608 25.3578 46.4297C25.5888 45.8985 25.9327 45.416 26.3689 45.011C26.8051 44.6059 27.3247 44.2866 27.8967 44.0721C28.4687 43.8575 29.0814 43.7522 29.6982 43.7623C30.315 43.7724 30.9233 43.8977 31.4868 44.1309C32.0503 44.364 32.5575 44.7002 32.978 45.1193L45.8038 57.0232L67.0759 31.856L67.1923 31.7309Z" fill="#EAEBED"/>
</svg>
